<?xml version="1.0" encoding="UTF-8" standalone="no" ?>
<!DOCTYPE svg PUBLIC "-//W3C//DTD SVG 1.1//EN" "http://www.w3.org/Graphics/SVG/1.1/DTD/svg11.dtd">
<svg xmlns="http://www.w3.org/2000/svg" xmlns:xlink="http://www.w3.org/1999/xlink" version="1.1" width="1280" height="1024" viewBox="0 0 1280 1024" xml:space="preserve">
<desc>Created with Fabric.js 3.6.3</desc>
<defs>
</defs>
<g transform="matrix(1.9692780337941629 0 0 1.9692780337941629 640.0153846153846 512.012312418764)" id="background-logo"  >
<rect style="stroke: none; stroke-width: 1; stroke-dasharray: none; stroke-linecap: butt; stroke-dashoffset: 0; stroke-linejoin: miter; stroke-miterlimit: 10; fill: rgb(255,255,255); fill-rule: nonzero; opacity: 1;"  paint-order="stroke"  x="-325" y="-260" rx="0" ry="0" width="650" height="520" />
</g>
<g transform="matrix(1.9692780337941629 0 0 1.9692780337941629 791.1193890378598 526.6510889054359)" id="text-logo-path"  >
<path style="stroke: none; stroke-width: 1; stroke-dasharray: none; stroke-linecap: butt; stroke-dashoffset: 0; stroke-linejoin: miter; stroke-miterlimit: 10; fill: rgb(50,38,114); fill-rule: nonzero; opacity: 1;"  paint-order="stroke"  transform=" translate(-216.44, 10.875)" d="M 1.38 -11.05 L 1.38 -11.05 Q 1.38 -13.3 2.27 -15.33 Q 3.16 -17.36 4.7 -18.86 Q 6.25 -20.36 8.45 -21.25 Q 10.66 -22.14 13.16 -22.14 L 13.16 -22.14 Q 16.56 -22.14 19.23 -20.68 Q 21.89 -19.22 23.39 -16.7 L 23.39 -16.7 L 18.94 -14.11 Q 18.14 -15.64 16.66 -16.52 Q 15.17 -17.41 13.16 -17.41 L 13.16 -17.41 Q 10.33 -17.41 8.51 -15.59 Q 6.69 -13.77 6.69 -11.05 L 6.69 -11.05 Q 6.69 -9.33 7.5 -7.84 Q 8.31 -6.36 9.8 -5.45 Q 11.3 -4.55 13.16 -4.55 L 13.16 -4.55 Q 15.09 -4.55 16.57 -5.44 Q 18.05 -6.33 18.88 -7.84 L 18.88 -7.84 L 23.33 -5.28 Q 21.8 -2.72 19.14 -1.16 Q 16.48 0.39 13.16 0.39 L 13.16 0.39 Q 10.64 0.39 8.45 -0.5 Q 6.25 -1.39 4.7 -2.91 Q 3.16 -4.44 2.27 -6.55 Q 1.38 -8.66 1.38 -11.05 Z M 29.84 0 L 24.28 0 L 33.59 -21.77 L 39.44 -21.77 L 48.78 0 L 43.19 0 L 41.78 -3.39 L 31.28 -3.39 L 29.84 0 Z M 36.56 -15.81 L 33.11 -7.69 L 39.95 -7.69 L 36.56 -15.81 Z M 49.2 -10.88 L 49.2 -10.88 Q 49.2 -13.13 50.09 -15.19 Q 50.98 -17.25 52.53 -18.78 Q 54.08 -20.31 56.3 -21.23 Q 58.52 -22.14 61.02 -22.14 L 61.02 -22.14 Q 64.08 -22.14 66.58 -20.87 Q 69.08 -19.59 70.77 -17.38 L 70.77 -17.38 L 66.23 -15.08 Q 64.53 -17.22 60.95 -17.22 L 60.95 -17.22 Q 58.11 -17.22 56.3 -15.44 Q 54.48 -13.66 54.48 -10.94 L 54.48 -10.94 Q 54.48 -8.3 56.34 -6.41 Q 58.2 -4.52 61.02 -4.52 L 61.02 -4.52 Q 64.42 -4.52 66.36 -6.34 L 66.36 -6.34 L 66.36 -8.45 L 59.73 -8.45 L 59.73 -12.48 L 71 -12.48 L 71 -4.42 Q 70.92 -4.25 70.53 -3.8 Q 70.14 -3.34 69.26 -2.6 Q 68.38 -1.86 67.27 -1.21 Q 66.17 -0.56 64.51 -0.09 Q 62.84 0.39 61.05 0.39 L 61.05 0.39 Q 58.42 0.39 56.17 -0.55 Q 53.92 -1.48 52.41 -3.05 Q 50.91 -4.61 50.05 -6.64 Q 49.2 -8.67 49.2 -10.88 Z M 91.64 0 L 74.97 0 L 74.97 -21.77 L 91.64 -21.77 L 91.64 -16.89 L 80.22 -16.89 L 80.22 -13.16 L 89.75 -13.16 L 89.75 -8.61 L 80.22 -8.61 L 80.22 -4.86 L 91.64 -4.86 L 91.64 0 Z M 109.89 -16.89 L 102.19 -16.89 L 102.19 -21.77 L 122.92 -21.77 L 122.92 -16.89 L 115.2 -16.89 L 115.2 0 L 109.89 0 L 109.89 -16.89 Z M 143.17 0 L 126.5 0 L 126.5 -21.77 L 143.17 -21.77 L 143.17 -16.89 L 131.75 -16.89 L 131.75 -13.16 L 141.28 -13.16 L 141.28 -8.61 L 131.75 -8.61 L 131.75 -4.86 L 143.17 -4.86 L 143.17 0 Z M 145.56 -11.05 L 145.56 -11.05 Q 145.56 -13.3 146.45 -15.33 Q 147.34 -17.36 148.89 -18.86 Q 150.44 -20.36 152.64 -21.25 Q 154.84 -22.14 157.34 -22.14 L 157.34 -22.14 Q 160.75 -22.14 163.41 -20.68 Q 166.08 -19.22 167.58 -16.7 L 167.58 -16.7 L 163.13 -14.11 Q 162.33 -15.64 160.84 -16.52 Q 159.36 -17.41 157.34 -17.41 L 157.34 -17.41 Q 154.52 -17.41 152.7 -15.59 Q 150.88 -13.77 150.88 -11.05 L 150.88 -11.05 Q 150.88 -9.33 151.69 -7.84 Q 152.5 -6.36 153.99 -5.45 Q 155.48 -4.55 157.34 -4.55 L 157.34 -4.55 Q 159.28 -4.55 160.76 -5.44 Q 162.23 -6.33 163.06 -7.84 L 163.06 -7.84 L 167.52 -5.28 Q 165.98 -2.72 163.33 -1.16 Q 160.67 0.39 157.34 0.39 L 157.34 0.39 Q 154.83 0.39 152.63 -0.5 Q 150.44 -1.39 148.89 -2.91 Q 147.34 -4.44 146.45 -6.55 Q 145.56 -8.66 145.56 -11.05 Z M 176.28 0 L 171.03 0 L 171.03 -21.77 L 176.28 -21.77 L 176.28 -13.31 L 185.84 -13.31 L 185.84 -21.77 L 191.13 -21.77 L 191.13 0 L 185.84 0 L 185.84 -8.45 L 176.28 -8.45 L 176.28 0 Z M 200.94 0 L 195.66 0 L 195.66 -21.77 L 200.94 -21.77 L 211.95 -8.48 L 211.95 -21.77 L 217.23 -21.77 L 217.23 0 L 211.95 0 L 200.94 -13.31 L 200.94 0 Z M 220.39 -10.88 L 220.39 -10.88 Q 220.39 -13.16 221.27 -15.23 Q 222.16 -17.31 223.66 -18.83 Q 225.16 -20.34 227.23 -21.24 Q 229.31 -22.14 231.61 -22.14 L 231.61 -22.14 Q 233.88 -22.14 235.96 -21.24 Q 238.05 -20.34 239.55 -18.83 Q 241.05 -17.31 241.95 -15.23 Q 242.84 -13.14 242.84 -10.88 L 242.84 -10.88 Q 242.84 -8.59 241.95 -6.51 Q 241.06 -4.42 239.55 -2.91 Q 238.05 -1.41 235.96 -0.51 Q 233.88 0.39 231.61 0.39 L 231.61 0.39 Q 228.55 0.39 225.96 -1.13 Q 223.38 -2.64 221.88 -5.23 Q 220.39 -7.81 220.39 -10.88 Z M 225.19 -10.88 L 225.19 -10.88 Q 225.19 -8.22 227.07 -6.35 Q 228.95 -4.48 231.61 -4.48 L 231.61 -4.48 Q 234.23 -4.48 236.11 -6.35 Q 237.98 -8.22 237.98 -10.88 L 237.98 -10.88 Q 237.98 -13.5 236.11 -15.38 Q 234.23 -17.25 231.61 -17.25 L 231.61 -17.25 Q 228.95 -17.25 227.07 -15.38 Q 225.19 -13.52 225.19 -10.88 Z M 262.97 0 L 246.3 0 L 246.3 -21.77 L 251.55 -21.77 L 251.55 -4.86 L 262.97 -4.86 L 262.97 0 Z M 264.17 -10.88 L 264.17 -10.88 Q 264.17 -13.16 265.05 -15.23 Q 265.94 -17.31 267.44 -18.83 Q 268.94 -20.34 271.02 -21.24 Q 273.09 -22.14 275.39 -22.14 L 275.39 -22.14 Q 277.66 -22.14 279.74 -21.24 Q 281.83 -20.34 283.33 -18.83 Q 284.83 -17.31 285.73 -15.23 Q 286.63 -13.14 286.63 -10.88 L 286.63 -10.88 Q 286.63 -8.59 285.73 -6.51 Q 284.84 -4.42 283.34 -2.91 Q 281.83 -1.41 279.74 -0.51 Q 277.66 0.39 275.39 0.39 L 275.39 0.39 Q 272.33 0.39 269.74 -1.13 Q 267.16 -2.64 265.66 -5.23 Q 264.17 -7.81 264.17 -10.88 Z M 268.97 -10.88 L 268.97 -10.88 Q 268.97 -8.22 270.85 -6.35 Q 272.73 -4.48 275.39 -4.48 L 275.39 -4.48 Q 278.02 -4.48 279.89 -6.35 Q 281.77 -8.22 281.77 -10.88 L 281.77 -10.88 Q 281.77 -13.5 279.89 -15.38 Q 278.02 -17.25 275.39 -17.25 L 275.39 -17.25 Q 272.73 -17.25 270.85 -15.38 Q 268.97 -13.52 268.97 -10.88 Z M 289.02 -10.88 L 289.02 -10.88 Q 289.02 -13.13 289.91 -15.19 Q 290.8 -17.25 292.34 -18.78 Q 293.89 -20.31 296.11 -21.23 Q 298.33 -22.14 300.83 -22.14 L 300.83 -22.14 Q 303.89 -22.14 306.39 -20.87 Q 308.89 -19.59 310.58 -17.38 L 310.58 -17.38 L 306.05 -15.08 Q 304.34 -17.22 300.77 -17.22 L 300.77 -17.22 Q 297.92 -17.22 296.11 -15.44 Q 294.3 -13.66 294.3 -10.94 L 294.3 -10.94 Q 294.3 -8.3 296.16 -6.41 Q 298.02 -4.52 300.83 -4.52 L 300.83 -4.52 Q 304.23 -4.52 306.17 -6.34 L 306.17 -6.34 L 306.17 -8.45 L 299.55 -8.45 L 299.55 -12.48 L 310.81 -12.48 L 310.81 -4.42 Q 310.73 -4.25 310.34 -3.8 Q 309.95 -3.34 309.07 -2.6 Q 308.19 -1.86 307.09 -1.21 Q 305.98 -0.56 304.32 -0.09 Q 302.66 0.39 300.86 0.39 L 300.86 0.39 Q 298.23 0.39 295.98 -0.55 Q 293.73 -1.48 292.23 -3.05 Q 290.72 -4.61 289.87 -6.64 Q 289.02 -8.67 289.02 -10.88 Z M 320.03 0 L 314.78 0 L 314.78 -21.77 L 320.03 -21.77 L 320.03 0 Z M 341.56 0 L 324.89 0 L 324.89 -21.77 L 341.56 -21.77 L 341.56 -16.89 L 330.14 -16.89 L 330.14 -13.16 L 339.67 -13.16 L 339.67 -8.61 L 330.14 -8.61 L 330.14 -4.86 L 341.56 -4.86 L 341.56 0 Z M 344.81 -7.61 L 344.81 -7.61 L 350.03 -7.61 Q 350.05 -7.47 350.1 -7.23 Q 350.16 -7 350.46 -6.41 Q 350.77 -5.81 351.23 -5.36 Q 351.69 -4.91 352.63 -4.53 Q 353.56 -4.16 354.77 -4.16 L 354.77 -4.16 Q 356.39 -4.16 357.18 -4.73 Q 357.97 -5.3 357.97 -6.08 L 357.97 -6.08 Q 357.97 -6.48 357.74 -6.81 Q 357.52 -7.14 357.21 -7.36 Q 356.91 -7.58 356.33 -7.79 Q 355.75 -8 355.31 -8.12 Q 354.88 -8.23 354.13 -8.42 L 354.13 -8.42 Q 351.02 -9.16 349.55 -9.77 L 349.55 -9.77 Q 345.14 -11.59 345.14 -15.23 L 345.14 -15.23 Q 345.14 -17.19 346.32 -18.77 Q 347.5 -20.36 349.52 -21.25 Q 351.55 -22.14 354 -22.14 L 354 -22.14 Q 356.03 -22.14 357.73 -21.48 Q 359.42 -20.83 360.48 -19.77 Q 361.53 -18.72 362.1 -17.45 Q 362.67 -16.17 362.67 -14.88 L 362.67 -14.88 L 357.45 -14.88 Q 357.45 -15.8 356.48 -16.62 Q 355.5 -17.44 353.94 -17.44 L 353.94 -17.44 Q 352.64 -17.44 351.55 -16.9 Q 350.45 -16.36 350.45 -15.48 L 350.45 -15.48 Q 350.45 -14.75 351.4 -14.32 Q 352.34 -13.89 354.95 -13.22 L 354.95 -13.22 Q 357.92 -12.45 359.23 -11.86 L 359.23 -11.86 Q 362.8 -10.25 363.17 -7.17 L 363.17 -7.17 Q 363.22 -6.78 363.22 -6.38 L 363.22 -6.38 Q 363.22 -3.3 360.79 -1.45 Q 358.36 0.39 354.48 0.39 L 354.48 0.39 Q 352.52 0.39 350.87 -0.12 Q 349.22 -0.63 348.13 -1.45 Q 347.03 -2.27 346.27 -3.33 Q 345.5 -4.39 345.16 -5.48 Q 344.81 -6.56 344.81 -7.61 Z M 379.88 0 L 374.63 0 L 374.63 -21.77 L 379.88 -21.77 L 379.88 0 Z M 389.69 0 L 384.41 0 L 384.41 -21.77 L 389.69 -21.77 L 400.7 -8.48 L 400.7 -21.77 L 405.98 -21.77 L 405.98 0 L 400.7 0 L 389.69 -13.31 L 389.69 0 Z M 409.48 -11.05 L 409.48 -11.05 Q 409.48 -13.3 410.38 -15.33 Q 411.27 -17.36 412.81 -18.86 Q 414.36 -20.36 416.56 -21.25 Q 418.77 -22.14 421.27 -22.14 L 421.27 -22.14 Q 424.67 -22.14 427.34 -20.68 Q 430 -19.22 431.5 -16.7 L 431.5 -16.7 L 427.05 -14.11 Q 426.25 -15.64 424.77 -16.52 Q 423.28 -17.41 421.27 -17.41 L 421.27 -17.41 Q 418.44 -17.41 416.62 -15.59 Q 414.8 -13.77 414.8 -11.05 L 414.8 -11.05 Q 414.8 -9.33 415.61 -7.84 Q 416.42 -6.36 417.91 -5.45 Q 419.41 -4.55 421.27 -4.55 L 421.27 -4.55 Q 423.2 -4.55 424.68 -5.44 Q 426.16 -6.33 426.98 -7.84 L 426.98 -7.84 L 431.44 -5.28 Q 429.91 -2.72 427.25 -1.16 Q 424.59 0.39 421.27 0.39 L 421.27 0.39 Q 418.75 0.39 416.55 -0.5 Q 414.36 -1.39 412.81 -2.91 Q 411.27 -4.44 410.38 -6.55 Q 409.48 -8.66 409.48 -11.05 Z" stroke-linecap="round" />
</g>
<g transform="matrix(1.6835249705622155 0 0 1.6835249705622157 256.3440181723189 512.0123124187639)" id="logo-logo"  >
<g style=""  paint-order="stroke"   >
		<g transform="matrix(0.2728 0 0 -0.2728 66.24030349999998 82.96247415823171)"  >
<path style="stroke: none; stroke-width: 1; stroke-dasharray: none; stroke-linecap: butt; stroke-dashoffset: 0; stroke-linejoin: miter; stroke-miterlimit: 10; fill: rgb(50,38,114); fill-rule: nonzero; opacity: 1;"  paint-order="stroke"  transform=" translate(-1916.30625, -1340.3321803995966)" d="m 1821.59 1160 l 238.6 137.75 c 32.79 18.93 32.79 66.25 0 85.18 l -238.6 137.74 c -32.78 18.92 -73.76 -4.74 -73.76 -42.59 v -275.5 c 0 -37.85 40.98 -61.51 73.76 -42.58" stroke-linecap="round" />
</g>
		<g transform="matrix(0.2728 0 0 -0.2728 11.229203499999983 -70.01542584176832)"  >
<path style="stroke: none; stroke-width: 1; stroke-dasharray: none; stroke-linecap: butt; stroke-dashoffset: 0; stroke-linejoin: miter; stroke-miterlimit: 10; fill: rgb(55,182,255); fill-rule: nonzero; opacity: 1;"  paint-order="stroke"  transform=" translate(-1714.6856249285113, -1901.01)" d="m 1739.27 1673.14 l 320.93 185.28 c 32.78 18.92 32.78 66.24 0 85.17 l -320.93 185.29 c -15.21 8.78 -33.96 8.78 -49.17 0 l -320.93 -185.29 c -32.78 -18.93 -32.78 -66.25 0.01 -85.17 l 320.92 -185.28 c 15.21 -8.78 33.96 -8.78 49.17 0" stroke-linecap="round" />
</g>
		<g transform="matrix(0.2728 0 0 -0.2728 -55.012196500000016 44.71777415823175)"  >
<linearGradient id="SVGID_586757" gradientUnits="userSpaceOnUse" gradientTransform="matrix(1 0 0 1 1262.27 1153.337034932087)"  x1="0" y1="0" x2="0" y2="654">
<stop offset="0%" style="stop-color:rgb(91,36,122);stop-opacity: 1"/>
<stop offset="100%" style="stop-color:rgb(27,206,223);stop-opacity: 1"/>
</linearGradient>
<path style="stroke: none; stroke-width: 1; stroke-dasharray: none; stroke-linecap: butt; stroke-dashoffset: 0; stroke-linejoin: miter; stroke-miterlimit: 10; fill: url(#SVGID_586757); fill-rule: nonzero; opacity: 1;"  paint-order="stroke"  transform=" translate(-1471.905, -1480.5021803995967)" d="m 1656.95 1615.73 l -320.93 185.28 c -32.78 18.92 -73.75 -4.74 -73.75 -42.59 v -370.56 c 0 -17.57 9.37 -33.81 24.58 -42.59 L 1607.78 1160 c 32.78 -18.93 73.76 4.73 73.76 42.58 v 370.56 c 0 17.57 -9.38 33.81 -24.59 42.59" stroke-linecap="round" />
</g>
</g>
</g>
</svg>